<?xml version="1.0" encoding="UTF-8"?>
<svg xmlns="http://www.w3.org/2000/svg" version="1.1" viewBox="0 0 24 37">
  <!-- Generator: Adobe Illustrator 29.5.1, SVG Export Plug-In . SVG Version: 2.1.0 Build 141)  -->
  <defs>
    <style>
      .st0 {
        fill: #fff;
        opacity: .5;
      }

      .st1 {
        isolation: isolate;
      }

      .st2 {
        mix-blend-mode: multiply;
        opacity: .1;
      }
    </style>
  </defs>
  <g class="st1">
    <g id="Layer_1">
      <g>
        <g class="st2">
          <path d="M12.5,1C6.6,1,1.9,5.8,1.9,11.6s10.6,25.4,10.6,25.4c0,0,10.6-19.5,10.6-25.4S18.4,1,12.5,1ZM12.5,15.3c-2,0-3.7-1.6-3.7-3.7s1.6-3.7,3.7-3.7,3.7,1.6,3.7,3.7-1.6,3.7-3.7,3.7Z"/>
        </g>
        <path d="M11.5,0C5.6,0,.9,4.8.9,10.6s10.6,25.4,10.6,25.4c0,0,10.6-19.5,10.6-25.4S17.4,0,11.5,0ZM11.5,14.3c-2,0-3.7-1.6-3.7-3.7s1.6-3.7,3.7-3.7,3.7,1.6,3.7,3.7-1.6,3.7-3.7,3.7Z"/>
      </g>
      <path class="st0" d="M11.5,14.3c-2,0-3.7-1.6-3.7-3.7s1.6-3.7,3.7-3.7,3.7,1.6,3.7,3.7-1.6,3.7-3.7,3.7Z"/>
    </g>
  </g>
</svg>